<svg width="308" height="632" viewBox="0 0 308 632" fill="none" xmlns="http://www.w3.org/2000/svg">
<path d="M1 54.5C1 24.9528 24.9528 1 54.5 1H253.5C283.047 1 307 24.9528 307 54.5V577.5C307 607.047 283.047 631 253.5 631H54.5C24.9528 631 1 607.047 1 577.5V54.5Z" stroke="#737373"/>
<path d="M11.5 55.0737C11.5 30.4732 32.1837 10.5 57.7368 10.5H82.6632C89.2875 10.5 94.6263 15.6744 94.6263 22.0196C94.6263 30.0573 101.377 36.5426 109.667 36.5426H208.333C216.623 36.5426 223.374 30.0573 223.374 22.0196C223.374 15.6744 228.713 10.5 235.337 10.5H260.263C285.816 10.5 306.5 30.4732 306.5 55.0736V576.926C306.5 601.527 285.816 621.5 260.263 621.5H57.7368C32.1837 621.5 11.5 601.527 11.5 576.926V55.0737Z" fill="white" stroke="#737373"/>
</svg>
